<svg viewBox="0 0 66 66" xmlns="http://www.w3.org/2000/svg"><path d="m62.64 11.52c0-4.51-3.65-8.16-8.16-8.16 0 0-13.17-3.36-18.12-3.36h-6.72c-4.95 0-18.12 3.36-18.12 3.36-4.51 0-8.16 3.65-8.16 8.16 0 0-3.36 13.17-3.36 18.12v6.72c0 4.95 3.36 18.12 3.36 18.12 0 4.51 3.65 8.16 8.16 8.16 0 0 13.17 3.36 18.12 3.36h6.72c4.95 0 18.12-3.36 18.12-3.36 4.51 0 8.16-3.65 8.16-8.16 0 0 3.36-13.17 3.36-18.12v-6.72c0-4.95-3.36-18.12-3.36-18.12zm-29.64 44.52c-12.67 0-23.04-10.37-23.04-23.04s10.37-23.04 23.04-23.04 23.04 10.37 23.04 23.04-10.37 23.04-23.04 23.04z"/><path d="m36.13 30.22c-.11 0-.21.01-.45.03.04-.15.1-.26.1-.36 0-3.95 0-7.9.02-11.85 0-.86-.04-1.69-.56-2.42l-.54-.54c-.48-.29-.98-.51-1.56-.53-1.52-.06-2.8 1.09-2.89 2.62v.35c0 4.13 0 8.26-.01 12.39 0 .1 0 .19-.01.38-.12-.02-.23-.06-.33-.06-4.15 0-8.3 0-12.45.01-1.42 0-2.52.84-2.82 2.14-.18.77-.04 1.48.38 2.15.03.05.06.11.08.16l.54.54c.73.51 1.56.56 2.42.56 3.94-.02 7.88-.01 11.83-.02.11 0 .21-.02.35-.04v.37c0 3.95 0 7.9-.02 11.85 0 .86.04 1.69.55 2.42l.54.54c.24.12.46.26.71.35.87.32 1.71.21 2.49-.28.05-.03.11-.05.16-.08l.54-.54c.52-.74.56-1.58.56-2.45-.01-3.93 0-7.87 0-11.8 0-.11-.01-.21-.03-.46.15.04.26.1.36.1 3.94 0 7.88-.01 11.83 0 .87 0 1.71-.04 2.45-.56l.54-.54c.11-.21.24-.42.33-.64.35-.92.27-1.79-.27-2.61-.02-.03-.03-.08-.05-.12l-.54-.54c-.73-.51-1.56-.56-2.42-.56-3.94.02-7.88.01-11.83.02z"/></svg>