<?xml version="1.0" encoding="UTF-8"?>
<svg id="Layer_2" data-name="Layer 2" xmlns="http://www.w3.org/2000/svg" viewBox="0 0 66 66">
  <g id="Layer_2-2" data-name="Layer 2">
    <g>
      <path d="m62.64,11.52c0-4.51-3.65-8.16-8.16-8.16,0,0-13.17-3.36-18.12-3.36h-6.72c-4.95,0-18.12,3.36-18.12,3.36C7.01,3.36,3.36,7.01,3.36,11.52c0,0-3.36,13.17-3.36,18.12v6.72c0,4.95,3.36,18.12,3.36,18.12,0,4.51,3.65,8.16,8.16,8.16,0,0,13.17,3.36,18.12,3.36h6.72c4.95,0,18.12-3.36,18.12-3.36,4.51,0,8.16-3.65,8.16-8.16,0,0,3.36-13.17,3.36-18.12v-6.72c0-4.95-3.36-18.12-3.36-18.12Zm-24.99,6.71s.05-.01.08-.03c.23-.12.73-1.56.62-1.8-.19-.43-.11-.82.23-1.16l.12-.12c.47-.47.48-.48,1.09-.19.24.11.43.12.64-.03.1-.07.22-.13.33-.16.57-.13.99-.41,1.1-1.04.01-.08.17-.16.26-.18.17-.03.36,0,.54,0,.53,0,.9.24,1.11.72.13.3,1.52.85,1.82.72.21-.09.43-.19.7-.31.14.16.24.31.38.42.51.41.85.83.36,1.49-.12.16.53,1.63.74,1.67.71.11.81.56.76,1.18-.06.83.13.62-.64.92-.24.1-.39.22-.43.48-.02.12-.06.24-.13.35-.32.5-.41.99-.04,1.51.05.06,0,.24-.06.31-.3.34-.61.66-.96,1.03-.61-.56-1.17-.35-1.8-.09-.45.19-.75.41-.84.88-.05.25-.21.33-.45.3-.11-.01-.22-.02-.33,0-.62.09-1.09-.03-1.21-.76-.04-.23-1.53-.83-1.72-.7-.56.4-.93.21-1.34-.26-.46-.54-.48-.51-.23-1.17.06-.16.01-.38-.02-.57-.03-.13-.14-.24-.17-.37-.14-.57-.41-.99-1.04-1.11-.07-.01-.16-.17-.18-.27-.03-.17.02-.36-.01-.53h0c-.1-.6.07-1.01.73-1.11Zm-1.19,11.81c.04.28.12.44.36.57.74.41,1.47.84,2.26,1.3-.79.49-1.57.62-2.41.39-1.32-.37-2.21-1.53-2.2-2.9,0-.29-.09-.44-.34-.57-1.36-.77-2.72-1.56-4.07-2.35-.22-.13-.37-.12-.59,0-1.04.59-2.11.6-3.13-.03-.95-.59-1.41-1.47-1.39-2.68.28.16.51.29.74.42.54.31,1.08.61,1.61.93.19.12.35.14.52,0,.01,0,.02-.02.04-.02.91-.29,1.23-.91,1.08-1.85-.04-.25-.11-.39-.32-.51-.75-.42-1.5-.86-2.26-1.3,1.01-.85,2.82-.62,3.79.46.52.59.81,1.28.78,2.07,0,.26.07.39.29.51,1.36.77,2.72,1.56,4.07,2.35.24.14.41.16.66,0,1.96-1.14,4.44.22,4.49,2.44,0,.08-.01.15-.03.28-.77-.45-1.51-.86-2.24-1.3-.24-.15-.41-.11-.67,0h0c-.85.33-1.19.89-1.04,1.8Zm-17.12-11.06c0-1.59,1.07-2.68,2.67-2.69,4.84,0,9.67,0,14.51,0,.2,0,.44,0,.43.25,0,.21-.13.42-.23.62-.02.05-.12.06-.18.08-.28.11-.64.15-.82.35-.16.17-.11.53-.17.85h-13.37c-.65,0-.68.03-.68.67,0,3.28,0,6.56,0,9.84,0,.28-.09.42-.33.57-.62.38-1.2.82-1.8,1.24h0c0-.07-.02-.18-.02-.3,0-3.83,0-7.66,0-11.49Zm5.23,10.99c3.19.02,5.77,2.62,5.77,5.81,0,3.19-2.59,5.78-5.78,5.79h0c-3.2.01-5.8-2.6-5.8-5.81,0-3.21,2.62-5.81,5.82-5.79Zm-11.4,22.51c.48-5.22,4.99-10.22,11.4-10.2,6.52.02,10.92,5.16,11.34,10.2H13.17Zm39.64-15.87c0,1.41-1.15,2.5-2.59,2.51-2.78,0-5.57,0-8.35,0h-.51v4.08c.14,0,.28.02.43.02,1.1,0,2.2-.03,3.31.02.47.02.96.11,1.39.31.65.29.99.84.97,1.59-.02.51,0,1.02,0,1.59h-.45c-3.79,0-7.58,0-11.36,0-.3,0-.47-.09-.63-.33-1.02-1.47-2.3-2.67-3.83-3.58-.26-.15-.37-.32-.35-.62.03-.41.01-.83,0-1.24-.01-1.01,0-2,.45-2.97.45-.97.46-2.06.32-3.18h19.07v-15.51c0-.54-.26-.83-.79-.89-.01-.03-.05-.07-.05-.1.14-.64-.23-.88-.77-1.01-.09-.02-.22-.04-.26-.1-.14-.2-.32-.41-.34-.63-.03-.29.26-.28.48-.28.47,0,.94,0,1.4.01h0c1.36.05,2.46,1.14,2.46,2.51.01,5.94.01,11.87,0,17.81Z"/>
      <path d="m42.7,22.27c1.64,0,2.97-1.31,2.99-2.95.02-1.62-1.32-2.98-2.95-2.99-1.64,0-2.97,1.31-2.98,2.96,0,1.65,1.31,2.98,2.94,2.99Z"/>
    </g>
  </g>
</svg>