<svg viewBox="0 0 66 66" xmlns="http://www.w3.org/2000/svg"><path d="m62.64 11.52c0-4.51-3.65-8.16-8.16-8.16 0 0-13.17-3.36-18.12-3.36h-6.72c-4.95 0-18.12 3.36-18.12 3.36-4.51 0-8.16 3.65-8.16 8.16 0 0-3.36 13.17-3.36 18.12v6.72c0 4.95 3.36 18.12 3.36 18.12 0 4.51 3.65 8.16 8.16 8.16 0 0 13.17 3.36 18.12 3.36h6.72c4.95 0 18.12-3.36 18.12-3.36 4.51 0 8.16-3.65 8.16-8.16 0 0 3.36-13.17 3.36-18.12v-6.72c0-4.95-3.36-18.12-3.36-18.12zm-15.96 20.55c-7.07 7.07-14.15 14.14-21.19 21.23-1.19 1.2-2.55 1.84-4.21 1.99-2.24.21-4.47.48-6.7.74-2.86.33-4.91-1.59-4.64-4.44.24-2.52.57-5.03.86-7.55.14-1.25.7-2.29 1.59-3.17 3.08-3.07 6.15-6.14 9.22-9.22 4.12-4.12 8.23-8.24 12.35-12.35.12-.12.21-.26.36-.44 4.28 4.32 8.47 8.56 12.79 12.93-.09.06-.29.13-.43.27zm7.79-7.77c-1.58 1.6-3.18 3.18-4.77 4.77-.09.09-.19.18-.25.23-4.25-4.25-8.48-8.48-12.73-12.74.07-.08.18-.2.29-.32 1.55-1.56 3.11-3.11 4.66-4.66 2.2-2.19 5.24-2.21 7.43-.03 1.8 1.78 3.59 3.57 5.37 5.38 2.13 2.16 2.12 5.21-.01 7.37z"/></svg>