<?xml version="1.0" encoding="UTF-8"?>
<svg id="Layer_2" data-name="Layer 2" xmlns="http://www.w3.org/2000/svg" viewBox="0 0 66 66">
  <g id="Layer_2-2" data-name="Layer 2">
    <g>
      <path d="m62.64,11.52c0-4.51-3.65-8.16-8.16-8.16,0,0-13.17-3.36-18.12-3.36h-6.72c-4.95,0-18.12,3.36-18.12,3.36C7.01,3.36,3.36,7.01,3.36,11.52c0,0-3.36,13.17-3.36,18.12v6.72c0,4.95,3.36,18.12,3.36,18.12,0,4.51,3.65,8.16,8.16,8.16,0,0,13.17,3.36,18.12,3.36h6.72c4.95,0,18.12-3.36,18.12-3.36,4.51,0,8.16-3.65,8.16-8.16,0,0,3.36-13.17,3.36-18.12v-6.72c0-4.95-3.36-18.12-3.36-18.12Zm-29.95,47.87c-14.35-.09-26.12-12.02-26.08-26.42.04-14.59,11.92-26.42,26.48-26.36,14.51.06,26.39,11.98,26.32,26.43-.07,14.72-11.97,26.45-26.71,26.36Z"/>
      <path d="m35.81,32.43c-.3-.3-.43-.6-.43-1.03.02-4.16.02-8.32,0-12.48,0-.47-.08-.99-.27-1.41-.44-.98-1.57-1.47-2.64-1.24-1.05.23-1.84,1.15-1.85,2.26-.02,2.42,0,4.83,0,7.25h0c0,2.36,0,4.72,0,7.08,0,.69.17,1.3.66,1.79,2.42,2.43,4.84,4.86,7.27,7.27.65.65,1.47.82,2.34.56h0c1.79-.53,2.29-2.69.93-4.06-1.99-2.01-3.99-4.01-6.01-6Z"/>
    </g>
  </g>
</svg>