<svg viewBox="0 0 295.31 247.38" xmlns="http://www.w3.org/2000/svg"><path d="m236.55 36.96v-32.85h-45.19v13.75l-42.24-17.86-109.98 46.5v92.06h14.88v-82.19l95.1-40.21 57.12 24.15v-21.31h15.43v27.83l22.56 9.54v82.19h14.88v-92.06z" fill="#1f6a95"/><path d="m224.84 71.45-11.89 9.58c-1.63-.13-2.58-.21-4.21-.34l-3.65-4.06c.09-1.7.14-2.64.24-4.34l13.3-11.88s-25.31-11.2-30.38 15.47l-2.63 13.8-30.16 44.23v-57.97h.02s-.02-5.1-.02-5.1 0-1.18 0-1.18c.1-1.94 3.31-3.5 7.21-3.5 1.87 0 6.72 1.39 6.97 3.19l.03 6.55 14.75-.07-.16-32.53s-6.55.02-6.55.02-8.2.05-8.2.05l.03 6.55c-.23 1.81-5.06 3.23-6.93 3.23-3.71 0-7.12-1.53-7.24-3.46l-.03-6.28-14.39.19c-16.91.08-30.55 13.85-30.47 30.76l6.39-.03c0-19.17 21.35-17.22 21.35-10.02v66l-9.25-15.29 1.88-1.13-4.41-7.44-10.5 6.33-25.65-42.57-.55-9.46-11.71-4.53-4.51 2.72-1.09 12.69 7.87 4.58 25.66 42.59-10.47 6.31 4.41 7.44 1.88-1.13 4.33 7.15h37.13s9.09 0 9.09 0 22.36 0 22.36 0 24.1-39.47 24.1-39.47l22.88-3.71-3.88-4.99s11.48-10.57 7.09-18.94z" fill="#1f6a95"/><path d="m14.96 138.56h268.33" fill="#053272" stroke="#1f6a95" stroke-miterlimit="10" stroke-width="4"/><path d="m14.96 240.82h268.33" fill="#053272" stroke="#1f6a95" stroke-miterlimit="10" stroke-width="4"/><text fill="#1f6a95" font-family="CascadiaCode-Regular, 'Cascadia Code'" transform="translate(0 168.9)"><tspan font-size="21"><tspan x="0" y="0">Home Installation System</tspan></tspan><tspan font-size="48"><tspan x="77.34" y="57.6">H.I.S</tspan></tspan></text></svg>