<?xml version="1.0" encoding="UTF-8"?>
<svg id="Layer_2" data-name="Layer 2" xmlns="http://www.w3.org/2000/svg" viewBox="0 0 66 66">
  <g id="Layer_2-2" data-name="Layer 2">
    <g>
      <path d="m35.47,21.45c.44.4.87.39,1.29-.02,1.72-1.71,3.45-3.42,5.17-5.13.05-.05.09-.09.13-.14.33-.4.23-1-.23-1.26-.36-.21-.74-.14-1.07.2-1.52,1.52-3.04,3.04-4.57,4.57-.04.04-.08.08-.13.13h0s-.06-.06-.09-.08c-.42-.38-.83-.76-1.25-1.14-.32-.29-.63-.6-.97-.87-.5-.4-1.21-.08-1.29.54-.04.32.09.57.32.78.9.81,1.79,1.63,2.68,2.44Z"/>
      <path d="m62.64,11.52c0-4.51-3.65-8.16-8.16-8.16,0,0-13.17-3.36-18.12-3.36h-6.72c-4.95,0-18.12,3.36-18.12,3.36C7.01,3.36,3.36,7.01,3.36,11.52c0,0-3.36,13.17-3.36,18.12v6.72c0,4.95,3.36,18.12,3.36,18.12,0,4.51,3.65,8.16,8.16,8.16,0,0,13.17,3.36,18.12,3.36h6.72c4.95,0,18.12-3.36,18.12-3.36,4.51,0,8.16-3.65,8.16-8.16,0,0,3.36-13.17,3.36-18.12v-6.72c0-4.95-3.36-18.12-3.36-18.12Zm-33.57,6.05c.17-1.77.86-3.32,2.03-4.66,1.29-1.46,2.9-2.37,4.82-2.71.31-.06.63-.09.95-.13h.98s.08.02.13.03c1.3.09,2.52.46,3.63,1.15,2.16,1.32,3.49,3.23,3.95,5.72.06.31.09.63.13.95v.98c-.01.06-.02.11-.03.17-.05.36-.08.72-.16,1.07-.44,2-1.46,3.64-3.09,4.87-2.03,1.53-4.31,2.04-6.8,1.53-1.99-.42-3.61-1.46-4.85-3.07-1.34-1.74-1.89-3.72-1.68-5.9Zm2.03,34.1c-.15.04-.3.1-.45.15h-1.14c-.34-.12-.69-.22-1.02-.37-1.65-.78-2.49-2.62-2.01-4.36.5-1.79,2.13-2.9,4.04-2.73h0c1.66.14,3.13,1.61,3.29,3.27.18,1.9-.92,3.55-2.71,4.05Zm13.01.04c-.13.03-.25.07-.37.11h-1.05c-.33-.11-.67-.19-.99-.33-1.67-.73-2.56-2.57-2.12-4.31.47-1.85,2.11-2.99,4.05-2.83h0c1.76.14,3.17,1.64,3.32,3.52.14,1.73-1.1,3.4-2.84,3.84Zm10.34-25.72c-.79,2.51-1.58,5.01-2.37,7.52-.53,1.69-1.06,3.38-1.59,5.06-.74,2.33-2.7,3.84-5.14,3.86-5.68.03-11.36.03-17.04,0-2.51-.01-4.48-1.59-5.2-4.02-1.85-6.26-3.7-12.53-5.54-18.8-.34-1.15-.84-1.53-2.03-1.53-1.35,0-2.69,0-4.04,0-1.17,0-2.01-.78-2.01-1.86,0-1.08.83-1.89,2-1.88,1.67,0,3.35-.08,5,.08,2.22.22,3.74,1.48,4.5,3.59.4,1.11.7,2.26,1.01,3.4.1.36.25.44.6.44,1.86,0,3.72,0,5.58,0,1.29,3.8,4.89,6.54,9.13,6.54s7.84-2.74,9.13-6.54c1.34,0,2.69,0,4.03,0,1.33,0,2.46.4,3.25,1.49h0c.32.45.49,1.01.72,1.52v1.14Z"/>
    </g>
  </g>
</svg>