<?xml version="1.0" encoding="UTF-8"?>
<svg id="Layer_2" data-name="Layer 2" xmlns="http://www.w3.org/2000/svg" viewBox="0 0 66 66">
  <g id="Layer_2-2" data-name="Layer 2">
    <g>
      <path d="m18.75,39.14c.61.58,1.43.6,2.05.01,2.12-2.02,4.21-4.05,6.3-6.09.4-.39.54-.88.39-1.44-.33-1.19-1.75-1.52-2.7-.61-1.54,1.48-3.05,2.98-4.57,4.47-.13.13-.27.25-.47.44-.66-.68-1.27-1.34-1.91-1.95-.64-.62-1.53-.61-2.13-.02-.6.58-.63,1.49-.02,2.12,1,1.04,2.02,2.06,3.06,3.06Z"/>
      <path d="m19.21,22.92c-.72.71-1.38,1.31-1.99,1.95-.86.91-.44,2.31.75,2.56.58.12,1.05-.09,1.46-.5.61-.62,1.22-1.24,1.85-1.87.74.7,1.4,1.36,2.11,1.98.9.8,2.23.39,2.5-.75.14-.6-.08-1.09-.5-1.5-.62-.61-1.23-1.22-1.83-1.8.05-.1.06-.12.07-.13.59-.6,1.18-1.2,1.77-1.79.4-.41.62-.88.5-1.46-.24-1.15-1.58-1.59-2.48-.81-.72.62-1.39,1.3-2.15,2.01-.63-.65-1.24-1.27-1.85-1.89-.4-.41-.88-.61-1.46-.48-1.17.26-1.59,1.63-.76,2.53.62.66,1.29,1.26,2.01,1.96Z"/>
      <path d="m26.46,42.67c-.71-.22-1.27.02-1.78.52-1.61,1.59-3.24,3.17-4.96,4.87-.68-.71-1.29-1.4-1.95-2.04-.62-.59-1.51-.54-2.09.04-.56.57-.62,1.45-.05,2.05,1.03,1.08,2.09,2.14,3.17,3.17.53.51,1.33.56,1.84.08,2.21-2.09,4.41-4.19,6.55-6.34.75-.76.29-2.02-.73-2.34Z"/>
      <path d="m62.64,11.52c0-4.51-3.65-8.16-8.16-8.16,0,0-13.17-3.36-18.12-3.36h-6.72c-4.95,0-18.12,3.36-18.12,3.36C7.01,3.36,3.36,7.01,3.36,11.52c0,0-3.36,13.17-3.36,18.12v6.72c0,4.95,3.36,18.12,3.36,18.12,0,4.51,3.65,8.16,8.16,8.16,0,0,13.17,3.36,18.12,3.36h6.72c4.95,0,18.12-3.36,18.12-3.36,4.51,0,8.16-3.65,8.16-8.16,0,0,3.36-13.17,3.36-18.12v-6.72c0-4.95-3.36-18.12-3.36-18.12Zm-26.14,28.52c4.23-4.23,8.48-8.48,12.7-12.7,1.38,1.38,2.78,2.78,4.16,4.15-4.22,4.21-8.47,8.47-12.7,12.7-1.36-1.36-2.78-2.77-4.16-4.15Zm2.06,6.52c-.6.43-1.16.93-1.8,1.29-1.2.66-2.44,1.26-3.68,1.85-1.01.49-2.05.05-2.24-.97-.07-.35.01-.78.17-1.11.66-1.41,1.35-2.81,2.09-4.17.26-.47.71-.83,1.09-1.26,1.46,1.46,2.87,2.87,4.37,4.37ZM18.7,7.7c.56-.95,1.44-1.47,2.53-1.48,4.13-.02,8.26-.03,12.39,0,1.71.01,3.01,1.39,2.99,3.04-.02,1.66-1.32,2.97-3.04,2.99-2.06.03-4.13,0-6.19,0-2.01,0-4.03.02-6.04,0-2.41-.04-3.83-2.51-2.64-4.55Zm26.97,45.51c-.01,1.39-.58,2.56-1.64,3.49-.69.61-1.52.88-2.38,1.1H13.23c-.06-.03-.12-.07-.18-.08-1.14-.18-2.04-.74-2.78-1.62-.6-.71-.87-1.56-1.07-2.44V13.26c.3-.72.48-1.52.91-2.15,1.24-1.8,3.11-2.02,5.12-1.85.01.15.02.28.03.41.24,3.1,2.79,5.56,5.9,5.59,4.2.04,8.4.06,12.6-.01,2.42-.04,4.22-1.26,5.27-3.44.37-.78.51-1.68.77-2.57.45,0,1.01-.02,1.56,0,.32.01.64.06.94.15,2.13.61,3.39,2.29,3.39,4.56,0,4.01,0,8.03.01,12.04,0,.35-.1.59-.35.83-4.77,4.76-9.53,9.52-14.29,14.28-.15.15-.32.31-.41.5-.84,1.68-1.71,3.34-2.5,5.05-.76,1.65-.37,3.59.86,4.86,1.31,1.35,3.22,1.84,4.89,1.1,1.69-.74,3.32-1.6,4.97-2.43.25-.12.49-.3.69-.49,1.91-1.89,3.8-3.8,5.71-5.7.11-.11.23-.22.38-.35.02.1.04.14.04.18,0,3.12.02,6.25-.01,9.37Zm13.1-14.17c-2.07,2.11-4.17,4.19-6.27,6.27-.67.67-1.58.68-2.2.06-.61-.62-.59-1.52.08-2.2,2.02-2.04,4.06-4.06,6.09-6.09.93-.93.92-1.71,0-2.63-.26-.26-.54-.49-.78-.71.75-.75,1.45-1.45,2.18-2.17.79.77,1.67,1.53,2.04,2.66.6,1.83.21,3.45-1.13,4.81Zm1.36-14.25c-1.48,1.5-3.03,2.94-4.55,4.4-1.33-1.33-2.73-2.73-4.14-4.14.03-.04.07-.11.13-.16,1.33-1.33,2.65-2.66,3.99-3.98.9-.88,1.96-1.22,3.18-.81,1.11.37,1.78,1.16,2.01,2.3.18.89.02,1.76-.61,2.4Z"/>
    </g>
  </g>
</svg>