<svg viewBox="0 0 66 66" xmlns="http://www.w3.org/2000/svg"><path d="m44.95 41.86c-.19-.19-.27-.38-.27-.65 0-2.62.01-5.24 0-7.86 0-.3-.05-.62-.17-.89-.28-.62-.99-.93-1.66-.78-.66.14-1.16.72-1.16 1.42-.01 1.52 0 3.05 0 4.57v4.46c0 .43.11.82.42 1.13 1.52 1.53 3.05 3.06 4.58 4.58.41.41.92.52 1.47.35 1.13-.33 1.44-1.69.59-2.56-1.25-1.27-2.52-2.53-3.78-3.78z"/><path d="m62.64 11.52c0-4.51-3.65-8.16-8.16-8.16 0 0-13.17-3.36-18.12-3.36h-6.72c-4.95 0-18.12 3.36-18.12 3.36-4.51 0-8.16 3.65-8.16 8.16 0 0-3.36 13.17-3.36 18.12v6.72c0 4.95 3.36 18.12 3.36 18.12 0 4.51 3.65 8.16 8.16 8.16 0 0 13.17 3.36 18.12 3.36h6.72c4.95 0 18.12-3.36 18.12-3.36 4.51 0 8.16-3.65 8.16-8.16 0 0 3.36-13.17 3.36-18.12v-6.72c0-4.95-3.36-18.12-3.36-18.12zm-37.15 40.06c-4.93 0-9.86 0-14.79 0-.61 0-1.22-.16-1.62-.62-.36-.41-.6-.92-.89-1.39v-35.46c.49-1.54 1.6-2.09 3.14-2.02 1.03.05 2.06 0 3.08 0h1.2c0-.92-.02-1.79 0-2.65.02-.82.37-1.49 1.09-1.92 1.72-1.02 3.76.08 3.81 2.07.02.81 0 1.63 0 2.46h24.68c0-.84-.02-1.66 0-2.48.02-.93.37-1.69 1.24-2.13 1.36-.7 3.68-.18 3.68 2.19v2.44c.74 0 1.43.03 2.11 0 1.51-.09 2.87 1.18 2.84 2.84-.06 3.63-.02 7.26-.02 10.89 0 .17-.02.33-.02.5-7.61-5.36-15.41-5.99-23.31-.92-4.32 2.77-7.02 6.85-8.21 11.86-1.19 5.03-.35 9.79 2.15 14.3-.12.02-.15.03-.18.03zm17.5 7.27c-9.05-.06-16.46-7.57-16.44-16.65.03-9.2 7.51-16.65 16.69-16.61 9.14.04 16.63 7.55 16.58 16.66-.05 9.28-7.54 16.67-16.83 16.61z"/></svg>