<?xml version="1.0" encoding="UTF-8"?>
<svg id="Layer_2" data-name="Layer 2" xmlns="http://www.w3.org/2000/svg" viewBox="0 0 66 66">
  <g id="Layer_2-2" data-name="Layer 2">
    <g>
      <path d="m39.08,31.34c-1.07.01-1.81.82-1.81,2.03,0,1.34,0,2.68,0,4.01,0,4.1,0,8.2,0,12.3,0,.73.2,1.35.82,1.76.59.4,1.24.44,1.87.1.68-.36.99-.96.99-1.73v-8.28h0c0-2.72,0-5.44,0-8.16,0-1.23-.76-2.06-1.86-2.04Zm1.86,10.2c0-2.72,0-5.44,0-8.16,0,2.72,0,5.44,0,8.16h0Z"/>
      <path d="m26.8,31.34c-1.06-.02-1.87.77-1.88,1.9-.01,5.54,0,11.09,0,16.63,0,.68.28,1.24.87,1.61.59.37,1.21.39,1.82.07.68-.36.99-.96.99-1.73h0v-8.28h0c0-2.74,0-5.48,0-8.22,0-1.16-.75-1.96-1.8-1.98Zm1.8,10.2c0-2.74,0-5.48,0-8.22,0,2.74,0,5.48,0,8.22h0Z"/>
      <path d="m62.64,11.52c0-4.51-3.65-8.16-8.16-8.16,0,0-13.17-3.36-18.12-3.36h-6.72c-4.95,0-18.12,3.36-18.12,3.36C7.01,3.36,3.36,7.01,3.36,11.52c0,0-3.36,13.17-3.36,18.12v6.72c0,4.95,3.36,18.12,3.36,18.12,0,4.51,3.65,8.16,8.16,8.16,0,0,13.17,3.36,18.12,3.36h6.72c4.95,0,18.12-3.36,18.12-3.36,4.51,0,8.16-3.65,8.16-8.16,0,0,3.36-13.17,3.36-18.12v-6.72c0-4.95-3.36-18.12-3.36-18.12Zm-39.22-2.64c.36-1.4,1.76-2.36,3.22-2.37,4.2-.02,8.41-.03,12.61,0,1.75.01,3.21,1.38,3.38,3.12h0c.08.81.01,1.64.01,2.51h-19.57c.11-1.11.08-2.23.35-3.27Zm28.02,45.16c0,3.33-2.18,5.48-5.52,5.48-8.66,0-17.33,0-25.99,0-3.34,0-5.52-2.15-5.52-5.48,0-8.9,0-17.79,0-26.69v-.68h37c.01.24.04.46.04.68,0,8.9,0,17.79,0,26.69Zm4.5-33.34c-.04,1.78-1.17,2.89-2.95,2.89-13.38,0-26.76,0-40.14,0h0c-1.78,0-2.9-1.11-2.94-2.89-.02-.78,0-1.57,0-2.36.01-1.99,1.09-3.08,3.07-3.08,6.67,0,13.34,0,20,0,4.1,0,8.2.02,12.3.01,1.64,0,3.28,0,4.92-.02.82,0,1.64-.01,2.46-.02,2.1-.02,3.4,1.29,3.28,3.3-.04.72,0,1.44-.01,2.17Z"/>
    </g>
  </g>
</svg>