<?xml version="1.0" encoding="UTF-8"?>
<svg id="Layer_2" data-name="Layer 2" xmlns="http://www.w3.org/2000/svg" viewBox="0 0 66 66">
  <g id="Layer_2-2" data-name="Layer 2">
    <g>
      <path d="m40.19,38.75h-4.31v-4.31c0-1.59-1.29-2.87-2.87-2.87s-2.87,1.29-2.87,2.87v4.31h-4.31c-1.59,0-2.87,1.29-2.87,2.87s1.29,2.87,2.87,2.87h4.31v4.31c0,1.59,1.29,2.87,2.87,2.87s2.87-1.29,2.87-2.87v-4.31h4.31c1.59,0,2.87-1.29,2.87-2.87s-1.29-2.87-2.87-2.87Z"/>
      <path d="m62.64,11.52c0-4.51-3.65-8.16-8.16-8.16,0,0-13.17-3.36-18.12-3.36h-6.72c-4.95,0-18.12,3.36-18.12,3.36C7.01,3.36,3.36,7.01,3.36,11.52c0,0-3.36,13.17-3.36,18.12v6.72c0,4.95,3.36,18.12,3.36,18.12,0,4.51,3.65,8.16,8.16,8.16,0,0,13.17,3.36,18.12,3.36h6.72c4.95,0,18.12-3.36,18.12-3.36,4.51,0,8.16-3.65,8.16-8.16,0,0,3.36-13.17,3.36-18.12v-6.72c0-4.95-3.36-18.12-3.36-18.12Zm-22.45-5.75c2.04.18,3.94,1.09,5.38,2.54l6.57,6.78c1.3,1.36,2.12,3.1,2.33,4.97h-11.4c-1.59,0-2.87-1.29-2.87-2.87V5.77Zm14.37,40.16c0,7.93-6.44,14.36-14.37,14.37h-14.37c-7.93,0-14.36-6.44-14.37-14.37v-25.87c0-7.93,6.44-14.36,14.37-14.37h8.62v11.5c0,4.76,3.86,8.62,8.62,8.62h11.5v20.12Z"/>
    </g>
  </g>
</svg>